HIERARCHY
ROOT Spine
{
    OFFSET 0.0 0.0 -0.0
    CHANNELS 6 Xposition Yposition Zposition Zrotation Xrotation Yrotation
    JOINT ShoulderCenter
    {
        OFFSET 0.0 31.778181076049805 0.0
        CHANNELS 3 Zrotation Xrotation Yrotation
        JOINT LeftShoulder
        {
            OFFSET 19.56266212463379 0.0 0.0
            CHANNELS 3 Zrotation Xrotation Yrotation
            JOINT LeftElbow
            {
                OFFSET 30.056922912597656 0.0 0.0
                CHANNELS 3 Zrotation Xrotation Yrotation
                JOINT LeftHand
                {
                    OFFSET 29.24838638305664 0.0 0.0
                    CHANNELS 3 Zrotation Xrotation Yrotation
                    End Site
                    {
                        OFFSET 11.69935417175293 0.0 0.0
                    }
                }
            }
        }
        JOINT RightShoulder
        {
            OFFSET -19.56266212463379 0.0 0.0
            CHANNELS 3 Zrotation Xrotation Yrotation
            JOINT RightElbow
            {
                OFFSET -30.056922912597656 0.0 0.0
                CHANNELS 3 Zrotation Xrotation Yrotation
                JOINT RightHand
                {
                    OFFSET -29.24838638305664 0.0 0.0
                    CHANNELS 3 Zrotation Xrotation Yrotation
                    End Site
                    {
                        OFFSET -11.69935417175293 0.0 0.0
                    }
                }
            }
        }
        End Site
        {
            OFFSET 0.0 12.711274147033691 0.0
        }
    }
    JOINT LeftHip
    {
        OFFSET 16.176682012527635 -16.176682012527635 0.0
        CHANNELS 3 Zrotation Xrotation Yrotation
        JOINT LeftKnee
        {
            OFFSET 0.0 -37.65435028076172 0.0
            CHANNELS 3 Zrotation Xrotation Yrotation
            JOINT LeftFoot
            {
                OFFSET 0.0 -45.33030700683594 0.0
                CHANNELS 3 Zrotation Xrotation Yrotation
                End Site
                {
                    OFFSET 0.0 0.0 18.132122039794922
                }
            }
        }
    }
    JOINT RightHip
    {
        OFFSET -16.176682012527635 -16.176682012527635 0.0
        CHANNELS 3 Zrotation Xrotation Yrotation
        JOINT RightKnee
        {
            OFFSET 0.0 -37.65435028076172 0.0
            CHANNELS 3 Zrotation Xrotation Yrotation
            JOINT RightFoot
            {
                OFFSET 0.0 -45.33030700683594 0.0
                CHANNELS 3 Zrotation Xrotation Yrotation
                End Site
                {
                    OFFSET 0.0 0.0 18.132122039794922
                }
            }
        }
    }
}
MOTION
Frames: 12
Frame Time: 0.03333333333333333
25.899999618530273 -4.0 211.5 3.4627195178489636 7.78367793328533 -59.46567305971034 1.0954733795596132e-07 -9.979355843444736e-07 3.9340783855920742 96.95209961952132 16.818557687568752 167.66381706008175 3.899815608298529e-07 5.9191114822695925e-06 38.884626822470985 -2.385416011097637e-15 0.0 0.0 -92.7543406496406 1.1061580202699635 175.74391406132978 -1.1631751854424108e-06 -2.7271331076142916e-06 -34.66085898010257 4.770832022195274e-15 6.620859447075238e-32 1.5902773407317582e-15 0.9718380807652807 -10.585678701074391 -11.359834231845479 -11.817674537326461 32.33202891371599 -38.646261660848 2.2621269777507063e-31 3.1805546814635164e-15 -8.15017137125026e-15 -2.2813323752795456 -34.64747892353039 -44.1319662632727 -1.1736010145460403 34.773225321111724 50.350289398040786 0.0 0.0 -8.348956038841732e-15
24.600000381469727 -3.9000000953674316 211.99998474121094 4.189341923483928 6.3433909677346785 -61.43796155662151 2.6063183582988525e-07 -2.396967449834346e-07 2.8675275135536986 95.95597851541875 16.961818978191594 166.32149254326364 4.957361132449724e-06 2.0631373347010937e-06 39.460311878641605 3.1805546814635168e-15 0.0 0.0 -92.12237770086989 0.6078081342437135 175.78501925045745 -2.243361318071377e-06 -3.337922933414983e-06 -35.22719015751543 1.5902773407317584e-15 1.5902773407317584e-15 -2.2069531490250793e-32 -0.8499740807573947 -10.542787818292464 -9.785985444130612 -11.45199979801773 33.82320844151359 -39.00061760242118 -1.5902773407317584e-15 -7.951386703658792e-16 -2.5842006786891076e-15 -3.168086208039787 -33.90839082102814 -44.70985097592561 -1.9463730301863553 35.22845376397589 52.32561700996023 1.2414111463266072e-32 7.951386703658792e-16 -1.7890620083232284e-15
23.5 -4.0 212.5 5.457553334134228 5.072754174279078 -62.84856198733722 4.549384683250185e-09 -4.2056748425332245e-07 1.0234253580892816 94.9471579449026 13.188635759699133 166.07608191899357 -8.294427408122255e-06 3.100650526867131e-06 39.56317785686639 -4.770832022195275e-15 0.0 0.0 -91.74870195614312 0.395703672270731 175.83526427768564 -1.8713740394538925e-06 2.8077966690125735e-06 -36.83647303665899 1.590277340731758e-15 0.0 0.0 -2.270938469763608 -11.980017947932172 -7.284500406320864 -10.835467411184938 36.69495025234767 -41.621845568911915 -2.385416011097637e-15 1.6552148617688095e-32 -7.951386703658791e-16 -4.736611905701415 -33.96968541480211 -45.38527620797324 -2.390138555459934 36.02528388481349 54.17019633414259 0.0 0.0 2.5842006786891076e-15
22.400001525878906 -4.199999809265137 212.8000030517578 6.540389625330332 4.342449011424395 -63.67933357691074 -1.1393801549362765e-07 -1.1131897185621637e-07 -0.9136308454689057 94.51264532983394 7.641215581247017 166.72172895325488 -9.790249183138033e-07 -2.788024926571783e-06 39.866991720810084 0.0 0.0 6.3611093629270335e-15 -90.91228081148223 0.892344664426743 176.12855990832784 3.5332110969817213e-06 1.9397713440912155e-07 -38.710265335800926 -7.951386703658792e-15 -6.3611093629270335e-15 -3.1805546814635176e-15 -2.874297711689987 -14.57586778358018 -1.9452597966335774 -7.8814138654906145 41.25934098564565 -47.70661895083332 7.951386703658792e-16 -1.6552148617688095e-32 -2.3854160110976376e-15 -5.744465226555575 -33.83199087489578 -44.45863543573842 -1.1662129315966192 36.38397955732786 53.462949033378955 -1.5902773407317584e-15 1.5902773407317584e-15 2.1866313435061676e-15
21.600000381469727 -4.300000190734863 213.1999969482422 7.822340570526256 3.441526793366739 -64.85192034245406 1.4129272881686043e-07 -3.013061437020375e-07 -2.5034873017518064 94.24734003534222 1.5435890588389802 168.28204369322813 -2.9879613598944826e-07 5.776083223897323e-06 39.62420085213066 3.1805546814635168e-15 0.0 0.0 -91.05895793600814 0.9065009149588026 176.65078061158627 -5.748731627229643e-07 1.4038154174042597e-06 -40.38167595938962 8.827812596100317e-32 1.5902773407317584e-15 -6.3611093629270335e-15 -3.0207280985135907 -18.03536199482232 4.62000164060868 -4.371995147960126 46.155980572940216 -55.91288617263997 1.5902773407317584e-15 7.951386703658792e-16 -1.1034765745125397e-32 -7.131472328979547 -33.80532539466494 -42.655368003640945 0.9288217113993891 36.838732203808775 52.0464899060514 3.1805546814635176e-15 -7.951386703658796e-16 -8.746525374024672e-15
20.80000114440918 -4.400000095367432 213.59999084472656 8.746163621375798 2.9016062400063034 -66.0086822973195 2.683257551784743e-08 2.745231172854164e-07 -3.6485179940175874 94.99059212402679 -4.215472308971931 170.10605685664208 -7.38313217758438e-07 -2.6983955134868296e-06 39.71921444821387 -6.3611093629270335e-15 -3.531125038440127e-31 6.3611093629270335e-15 -90.96709077333085 1.585034402812794 177.42704228847026 2.5594115976037617e-06 4.484604057954771e-06 -41.6155603729513 4.770832022195275e-15 1.3241718894150476e-31 3.1805546814635168e-15 -2.5911445575551313 -21.8958552333114 14.550684935004776 2.68993298688479 50.38690418623748 -67.30206225180349 1.5902773407317588e-15 -7.951386703658794e-16 -2.3854160110976384e-15 -7.686681299132325 -33.42269188673464 -38.94072945898722 4.524863668593359 36.471214934269454 47.53251393313077 0.0 0.0 9.54166404439055e-15
20.0 -4.400000095367432 214.00001525878906 9.283551747807948 2.535622497386467 -66.82378617875555 -4.7561887122390104e-07 1.2889652597746545e-07 -4.6024782554211825 96.14408044812107 -7.520235340134321 172.16763737753516 -3.1552849731936496e-06 -3.8726750592986235e-09 40.231737233263736 3.1805546814635168e-15 -1.7655625192200634e-31 -6.3611093629270335e-15 -91.39201708594057 2.463965565097273 178.1945332092052 -7.649099362363983e-07 -1.5767811391684723e-07 -41.530868835478564 1.7655625192200634e-31 -6.3611093629270335e-15 3.1805546814635168e-15 -1.9993387396685012 -25.52677891830489 24.607907311666054 11.994429565945735 51.750530440139414 -79.47223320172944 4.770832022195275e-15 7.951386703658789e-16 -7.156248033292914e-15 -7.893645124155662 -32.68496145389007 -35.41134299707844 7.468279739924085 35.55259348110093 43.745337961727586 2.2069531490250793e-32 -7.951386703658792e-16 3.1805546814635168e-15
19.200000762939453 -4.300000190734863 214.40000915527344 9.43263546417855 2.3462143806905016 -67.96019445682333 4.922625265374743e-07 -4.3246186467556334e-07 -5.032509539794696 97.09782069941613 -7.787021171274487 174.3730964164029 -4.25855177028395e-07 -1.8625413895876025e-06 40.24600522094027 3.180554681463516e-15 -6.3611093629270335e-15 -1.2722218725854067e-14 -91.37213937421181 4.3024747569491035 178.59343155271992 2.3083547332801356e-06 -2.361059610229676e-06 -39.8211497238754 0.0 0.0 0.0 -1.5383252068279158 -28.617655671597845 31.859567681498287 24.906294565093592 50.231872187839656 -95.0167156325461 5.9635400277440935e-15 -3.1805546814635168e-15 -4.770832022195274e-15 -7.514099027196607 -31.589184046531273 -31.38432114873988 10.331513015539956 34.209547987030774 40.168968429384044 -3.1805546814635168e-15 -7.951386703658791e-16 -2.1866313435061676e-15
18.5 -4.099999904632568 214.8000030517578 9.462321422520914 2.3535227335783664 -68.77469568457525 3.623128296193136e-07 -1.123909126440218e-06 -5.436138086187729 97.75390908994568 -6.172701323373807 176.45190912788797 -2.84859654513645e-06 -7.866209665510824e-07 40.34919260264403 -3.1805546814635168e-15 6.3611093629270335e-15 6.3611093629270335e-15 -91.3833336268706 7.52026623217502 178.93054062618546 3.7213811055088085e-06 2.829627592192487e-07 -36.966076654523945 -6.3611093629270335e-15 -3.1805546814635168e-15 6.3611093629270335e-15 -1.210836895255848 -31.544182982345788 38.08809255884687 37.4101207729862 45.982938572301414 -110.88721155972218 -7.156248033292914e-15 -1.241411146326607e-31 1.987846675914698e-15 -6.987099760793709 -30.471948992626714 -26.867218876082728 13.152716606890205 32.49092242857585 36.06192424901384 -3.1805546814635168e-15 -1.1034765745125397e-32 3.975693351829396e-16
17.700000762939453 -3.9000000953674316 215.1999969482422 9.104600916267549 2.3559238516949406 -69.80721080725876 7.047553680776063e-07 1.3460225555230892e-07 -5.525040795249227 97.70502120272779 -3.1221202142832074 177.98470292036743 2.259011340997248e-06 1.9206894601080454e-06 41.18822814662672 0.0 0.0 0.0 -91.66724657487893 10.90783290892806 179.18472522063723 5.43236099766802e-06 3.1928146266941495e-06 -33.0902791480098 -3.1805546814635168e-15 8.827812596100317e-32 -3.1805546814635168e-15 -1.0396311987261901 -33.70083497251197 42.841167762948785 45.061066158882646 40.4855241558546 -121.30212457037157 -3.4787316828507205e-16 -1.5902773407317584e-15 5.193249440827148e-15 -5.97642163172399 -29.308083965817232 -23.822947874672572 13.977830480573408 31.217825515110786 33.97480733397704 3.1805546814635164e-15 3.310429723537619e-32 1.1927080055488186e-15
17.0 -3.799999952316284 215.70001220703125 9.075998405327525 2.348564658736987 -71.55462148382443 -3.846488209878399e-07 2.1474790990071602e-07 -4.787498671388799 97.2730977305111 0.3591047791435079 179.11474636607596 4.088369314254843e-06 -1.7091072948222003e-06 42.75984398390761 0.0 0.0 0.0 -91.77383420494236 15.757194102836065 179.2114161207136 7.908450867061905e-07 6.7739607387554445e-06 -29.36353260548034 0.0 0.0 0.0 -1.2739743425836727 -35.32841184500764 44.37933909988399 47.0462382965258 35.85714428740147 -125.2575916186854 3.975693351829395e-16 1.1927080055488184e-15 -1.590277340731758e-15 -4.571661319923635 -28.85617099250857 -20.62503345878663 14.003674144870825 30.657250495689993 32.682301131570355 0.0 0.0 0.0
16.200000762939453 -3.700000047683716 216.10000610351562 8.718652361728518 2.712047868141126 -73.5634365429481 -7.063564545988911e-07 4.345169996123373e-07 -3.7831071974447346 97.15401320503179 3.0394896567234526 179.41740859211433 1.2948943403636178e-06 -8.491840406815733e-07 44.99733413849923 0.0 0.0 0.0 -91.80572482839807 20.50705817714199 179.94009422183615 -2.292563493480421e-06 3.8026047050806746e-07 -26.969348557275804 -6.3611093629270335e-15 3.1805546814635164e-15 6.3611093629270335e-15 -1.30422627229698 -36.16227955102827 43.816005337171575 45.8087413068291 32.15739038219129 -124.32990152444307 -1.5902773407317584e-15 3.586298867165754e-32 -2.5842006786891076e-15 -3.001565288255552 -28.252486586122668 -19.19230543544432 13.549988583836779 30.716908556123865 33.061140770875596 3.1805546814635168e-15 1.5902773407317584e-15 2.9817700138720468e-15
